<svg xmlns="http://www.w3.org/2000/svg" width="384" viewBox="0 0 384 384" height="384" version="1.0"><defs><clipPath id="a"><path d="M 113 118.359375 L 270.820312 118.359375 L 270.820312 148.234375 L 113 148.234375 Z M 113 118.359375"/></clipPath><clipPath id="b"><path d="M 113 177.203125 L 270.820312 177.203125 L 270.820312 207.078125 L 113 207.078125 Z M 113 177.203125"/></clipPath><clipPath id="c"><path d="M 113 236.042969 L 270.820312 236.042969 L 270.820312 265.921875 L 113 265.921875 Z M 113 236.042969"/></clipPath></defs><g clip-path="url(#a)"><path fill="#FFF" d="M 270.722656 133.296875 C 270.722656 141.546875 264.105469 148.234375 255.945312 148.234375 L 127.859375 148.234375 C 119.695312 148.234375 113.078125 141.546875 113.078125 133.296875 C 113.078125 125.046875 119.695312 118.359375 127.859375 118.359375 L 255.945312 118.359375 C 264.105469 118.359375 270.722656 125.046875 270.722656 133.296875 Z M 270.722656 133.296875"/></g><g clip-path="url(#b)"><path fill="#FFF" d="M 270.722656 192.140625 C 270.722656 200.390625 264.105469 207.078125 255.945312 207.078125 L 127.859375 207.078125 C 119.695312 207.078125 113.078125 200.390625 113.078125 192.140625 C 113.078125 183.890625 119.695312 177.203125 127.859375 177.203125 L 255.945312 177.203125 C 264.105469 177.203125 270.722656 183.890625 270.722656 192.140625 Z M 270.722656 192.140625"/></g><g clip-path="url(#c)"><path fill="#FFF" d="M 270.722656 250.984375 C 270.722656 259.234375 264.105469 265.921875 255.945312 265.921875 L 127.859375 265.921875 C 119.695312 265.921875 113.078125 259.234375 113.078125 250.984375 C 113.078125 242.730469 119.695312 236.042969 127.859375 236.042969 L 255.945312 236.042969 C 264.105469 236.042969 270.722656 242.730469 270.722656 250.984375 Z M 270.722656 250.984375"/></g></svg>