<svg xmlns="http://www.w3.org/2000/svg" width="384" viewBox="0 0 384 384" height="384" version="1.0"><defs><clipPath id="a"><path d="M 94 95 L 289 95 L 289 289.773438 L 94 289.773438 Z M 94 95"/></clipPath></defs><g clip-path="url(#a)"><path fill="#FFF" d="M 219.351562 192.890625 L 283.242188 129.042969 C 290.816406 121.480469 290.816406 109.203125 283.242188 101.632812 C 275.664062 94.066406 263.394531 94.066406 255.820312 101.632812 L 191.929688 165.480469 L 128.042969 101.640625 C 120.472656 94.066406 108.191406 94.066406 100.617188 101.640625 C 93.046875 109.203125 93.046875 121.480469 100.617188 129.050781 L 164.503906 192.890625 L 100.460938 256.894531 C 92.890625 264.460938 92.890625 276.734375 100.460938 284.300781 C 104.242188 288.085938 109.214844 289.980469 114.171875 289.980469 C 119.128906 289.980469 124.101562 288.085938 127.890625 284.300781 L 191.925781 220.304688 L 255.804688 284.144531 C 259.59375 287.929688 264.558594 289.824219 269.515625 289.824219 C 274.476562 289.824219 279.4375 287.929688 283.226562 284.144531 C 290.804688 276.582031 290.804688 264.304688 283.226562 256.742188 Z M 219.351562 192.890625"/></g></svg>