<svg xmlns="http://www.w3.org/2000/svg" width="384" viewBox="0 0 384 384" height="384" version="1.0"><defs><clipPath id="a"><path d="M 123.765625 106 L 260.265625 106 L 260.265625 294.210938 L 123.765625 294.210938 Z M 123.765625 106"/></clipPath><clipPath id="b"><path d="M 175 89.460938 L 190 89.460938 L 190 104 L 175 104 Z M 175 89.460938"/></clipPath><clipPath id="c"><path d="M 194 89.460938 L 209 89.460938 L 209 104 L 194 104 Z M 194 89.460938"/></clipPath></defs><g clip-path="url(#a)"><path fill="#FFF" d="M 192.140625 106.550781 L 159.917969 106.578125 C 144.910156 106.578125 133.867188 118.609375 133.867188 131.714844 L 133.867188 224.535156 C 133.867188 237.230469 143.824219 247.652344 153.832031 249.261719 L 123.824219 294.1875 L 141.136719 294.1875 L 162.609375 262.785156 L 221.425781 262.785156 L 242.898438 294.1875 L 260.210938 294.1875 L 230.203125 249.261719 C 240.210938 247.652344 250.167969 237.230469 250.167969 224.535156 L 250.167969 131.714844 C 250.167969 118.609375 239.121094 106.578125 224.117188 106.578125 Z M 179.378906 111.9375 L 204.65625 111.9375 C 206.9375 111.9375 208.921875 113.847656 208.921875 116.128906 L 208.921875 123.507812 C 208.921875 125.785156 207.046875 127.738281 204.65625 127.738281 L 179.378906 127.738281 C 176.988281 127.738281 175.113281 125.785156 175.113281 123.507812 L 175.113281 116.128906 C 175.113281 113.847656 177.097656 111.9375 179.378906 111.9375 Z M 160.789062 132.746094 L 223.246094 132.746094 C 231.726562 132.746094 236.222656 138.808594 236.222656 145.753906 L 236.222656 162.464844 C 236.289062 170.496094 230.421875 175.40625 223.246094 175.40625 L 160.789062 175.40625 C 153.613281 175.40625 147.742188 170.496094 147.808594 162.464844 L 147.808594 145.753906 C 147.808594 138.808594 152.308594 132.746094 160.789062 132.746094 Z M 159.375 212.925781 C 165.683594 212.925781 170.789062 218.023438 170.789062 224.320312 C 170.789062 230.617188 165.683594 235.714844 159.375 235.714844 C 153.066406 235.714844 147.960938 230.617188 147.960938 224.320312 C 147.960938 218.023438 153.066406 212.925781 159.375 212.925781 Z M 224.390625 212.925781 C 230.695312 212.925781 235.816406 218.023438 235.816406 224.320312 C 235.816406 230.617188 230.695312 235.714844 224.390625 235.714844 C 218.082031 235.714844 212.972656 230.617188 212.972656 224.320312 C 212.972656 218.023438 218.082031 212.925781 224.390625 212.925781 Z M 224.390625 212.925781"/></g><g clip-path="url(#b)"><path fill="#FFF" d="M 182.433594 103.863281 C 178.449219 103.863281 175.21875 100.640625 175.21875 96.660156 C 175.21875 92.683594 178.449219 89.460938 182.433594 89.460938 C 186.417969 89.460938 189.648438 92.683594 189.648438 96.660156 C 189.648438 100.636719 186.417969 103.863281 182.433594 103.863281 Z M 182.433594 103.863281"/></g><g clip-path="url(#c)"><path fill="#FFF" d="M 201.601562 103.863281 C 205.589844 103.863281 208.816406 100.640625 208.816406 96.660156 C 208.816406 92.683594 205.589844 89.460938 201.601562 89.460938 C 197.617188 89.460938 194.386719 92.683594 194.386719 96.660156 C 194.386719 100.636719 197.617188 103.863281 201.601562 103.863281 Z M 201.601562 103.863281"/></g><path fill="#FFF" d="M 191.878906 345.355469 C 150.902344 345.355469 112.316406 329.40625 83.363281 300.390625 C 54.347656 271.4375 38.398438 232.851562 38.398438 191.878906 C 38.398438 150.902344 54.347656 112.316406 83.363281 83.363281 C 112.316406 54.347656 150.902344 38.398438 191.878906 38.398438 C 232.855469 38.398438 271.4375 54.347656 300.390625 83.363281 C 329.40625 112.378906 345.355469 150.902344 345.355469 191.878906 C 345.355469 232.851562 329.40625 271.4375 300.390625 300.390625 C 271.4375 329.40625 232.855469 345.355469 191.878906 345.355469 Z M 191.878906 47.601562 C 153.355469 47.601562 117.101562 62.628906 89.867188 89.867188 C 62.628906 117.101562 47.601562 153.355469 47.601562 191.878906 C 47.601562 230.398438 62.628906 266.652344 89.867188 293.886719 C 117.101562 321.125 153.355469 336.152344 191.878906 336.152344 C 230.398438 336.152344 266.652344 321.125 293.886719 293.886719 C 321.125 266.652344 336.152344 230.398438 336.152344 191.878906 C 336.152344 153.355469 321.125 117.101562 293.886719 89.867188 C 266.652344 62.628906 230.398438 47.601562 191.878906 47.601562 Z M 191.878906 47.601562"/></svg>