<svg xmlns="http://www.w3.org/2000/svg" width="384" viewBox="0 0 384 384" height="384" version="1.0"><defs><clipPath id="a"><path d="M 87 183 L 296.867188 183 L 296.867188 201 L 87 201 Z M 87 183"/></clipPath><clipPath id="b"><path d="M 87 116.171875 L 296.867188 116.171875 L 296.867188 134 L 87 134 Z M 87 116.171875"/></clipPath><clipPath id="c"><path d="M 87 250 L 296.867188 250 L 296.867188 267.671875 L 87 267.671875 Z M 87 250"/></clipPath></defs><g clip-path="url(#a)"><path fill="#FFF" d="M 287.992188 200.664062 L 95.746094 200.664062 C 90.921875 200.664062 87.007812 196.75 87.007812 191.921875 C 87.007812 187.097656 90.921875 183.183594 95.746094 183.183594 L 287.992188 183.183594 C 292.816406 183.183594 296.730469 187.097656 296.730469 191.921875 C 296.730469 196.75 292.816406 200.664062 287.992188 200.664062 Z M 287.992188 200.664062"/></g><g clip-path="url(#b)"><path fill="#FFF" d="M 287.992188 133.65625 L 95.746094 133.65625 C 90.921875 133.65625 87.007812 129.738281 87.007812 124.914062 C 87.007812 120.089844 90.921875 116.171875 95.746094 116.171875 L 287.992188 116.171875 C 292.816406 116.171875 296.730469 120.089844 296.730469 124.914062 C 296.730469 129.738281 292.816406 133.65625 287.992188 133.65625 Z M 287.992188 133.65625"/></g><g clip-path="url(#c)"><path fill="#FFF" d="M 287.992188 267.671875 L 95.746094 267.671875 C 90.921875 267.671875 87.007812 263.757812 87.007812 258.933594 C 87.007812 254.109375 90.921875 250.191406 95.746094 250.191406 L 287.992188 250.191406 C 292.816406 250.191406 296.730469 254.109375 296.730469 258.933594 C 296.730469 263.757812 292.816406 267.671875 287.992188 267.671875 Z M 287.992188 267.671875"/></g></svg>